<?xml version="1.0" encoding="utf-8"?>
<!-- Generator: Adobe Illustrator 18.1.1, SVG Export Plug-In . SVG Version: 6.00 Build 0)  -->
<!DOCTYPE svg PUBLIC "-//W3C//DTD SVG 1.1//EN" "http://www.w3.org/Graphics/SVG/1.1/DTD/svg11.dtd">
<svg version="1.1" id="Layer_1" xmlns="http://www.w3.org/2000/svg" xmlns:xlink="http://www.w3.org/1999/xlink" x="0px" y="0px"
	 viewBox="0 0 104 104" enable-background="new 0 0 104 104" xml:space="preserve">
<g id="ic_x5F_05">
	<path id="bg_10_" fill="#0079FF" d="M84,104H20C9,104,0,95,0,84V20C0,9,9,0,20,0h64c11,0,20,9,20,20v64C104,95,95,104,84,104z"/>
	<path fill="#FFFFFF" d="M61.2,68.7H42.8c-4.1,0-7.5-3.4-7.5-7.5V42.8c0-4.1,3.4-7.5,7.5-7.5h18.5c4.1,0,7.5,3.4,7.5,7.5v18.5
		C68.7,65.4,65.4,68.7,61.2,68.7z M42.8,41.5c-0.7,0-1.2,0.6-1.2,1.2v18.5c0,0.7,0.6,1.2,1.2,1.2h18.5c0.7,0,1.2-0.6,1.2-1.2V42.8
		c0-0.7-0.6-1.2-1.2-1.2L42.8,41.5L42.8,41.5z M52,89.1c-20.5,0-37.1-16.7-37.1-37.1S31.5,14.9,52,14.9S89.1,31.5,89.1,52
		S72.5,89.1,52,89.1z M52,21.1C35,21.1,21.1,35,21.1,52S35,82.9,52,82.9S82.9,69,82.9,52S69,21.1,52,21.1z"/>
</g>
</svg>
