<?xml version="1.0" encoding="utf-8"?>
<!-- Generator: Adobe Illustrator 18.1.1, SVG Export Plug-In . SVG Version: 6.00 Build 0)  -->
<!DOCTYPE svg PUBLIC "-//W3C//DTD SVG 1.1//EN" "http://www.w3.org/Graphics/SVG/1.1/DTD/svg11.dtd">
<svg version="1.1" id="Layer_1" xmlns="http://www.w3.org/2000/svg" xmlns:xlink="http://www.w3.org/1999/xlink" x="0px" y="0px"
	 viewBox="0 0 104 104" enable-background="new 0 0 104 104" xml:space="preserve">
<g id="ic_x5F_13">
	<path id="bg_17_" fill="#0079FF" d="M84,104H20C9,104,0,95,0,84V20C0,9,9,0,20,0h64c11,0,20,9,20,20v64C104,95,95,104,84,104z"/>
	<path fill="#FFFFFF" d="M91,41.5v-7.9c0-2.2-1.8-4.1-4.1-4.1H15.8c-2.2,0-4.1,1.8-4.1,4.1v36.9c0,2.2,1.8,4.1,4.1,4.1H87
		c2.2,0,4.1-1.8,4.1-4.1v-7.9h1.2c2.2,0,4.1-1.8,4.1-4.1V45.6c0-2.2-1.8-4.1-4.1-4.1H91z M84,68.6H19V35.4h65V68.6L84,68.6z
		 M39,63.7H24V40.2h15V63.7z"/>
</g>
</svg>
