<?xml version="1.0" encoding="utf-8"?>
<!-- Generator: Adobe Illustrator 18.1.1, SVG Export Plug-In . SVG Version: 6.00 Build 0)  -->
<!DOCTYPE svg PUBLIC "-//W3C//DTD SVG 1.1//EN" "http://www.w3.org/Graphics/SVG/1.1/DTD/svg11.dtd">
<svg version="1.1" id="Layer_1" xmlns="http://www.w3.org/2000/svg" xmlns:xlink="http://www.w3.org/1999/xlink" x="0px" y="0px"
	 viewBox="0 0 104 104" enable-background="new 0 0 104 104" xml:space="preserve">
<g id="ic_x5F_03">
	<path id="bg_4_" fill="#0079FF" d="M84,104H20C9,104,0,95,0,84V20C0,9,9,0,20,0h64c11,0,20,9,20,20v64C104,95,95,104,84,104z"/>
	<path fill="#FFFFFF" d="M52,36.6c-8.8,0-16,7.2-16,16s7.2,16,16,16s16-7.2,16-16S60.8,36.6,52,36.6z M52,60.8
		c-4.5,0-8.2-3.7-8.2-8.2s3.7-8.2,8.2-8.2s8.2,3.7,8.2,8.2S56.5,60.8,52,60.8z M48,27.7v-7.8c0-2.2,1.3-3.9,3.5-3.9s3.5,1.8,3.5,3.9
		v7.8c0,2.2-1.3,3.9-3.5,3.9S48,29.9,48,27.7z M55,76.3v7.8c0,2.2-1.3,3.9-3.5,3.9S48,86.2,48,84.1v-7.8c0-2.2,1.3-3.9,3.5-3.9
		S55,74.1,55,76.3z M27.7,56h-7.8c-2.2,0-3.9-1.8-3.9-4s1.8-4,3.9-4h7.8c2.2,0,3.9,1.8,3.9,4S29.9,56,27.7,56z M88,52
		c0,2.2-1.8,4-3.9,4h-7.8c-2.2,0-3.9-1.8-3.9-4s1.8-4,3.9-4h7.8C86.2,48,88,49.8,88,52z M26.5,32.1c-0.8-0.8-1.2-1.8-1.2-2.8
		s0.4-2,1.2-2.8c1.5-1.5,4-1.5,5.6,0l5.5,5.5c0.8,0.8,1.2,1.8,1.2,2.8s-0.4,2-1.2,2.8s-1.8,1.2-2.8,1.2s-2-0.4-2.8-1.2L26.5,32.1z
		 M77.5,71.9c0.8,0.8,1.2,1.8,1.2,2.8s-0.4,2-1.2,2.8s-1.8,1.2-2.8,1.2s-2-0.4-2.8-1.2L66.4,72c-0.8-0.8-1.2-1.8-1.2-2.8
		s0.4-2,1.2-2.8c1.5-1.5,4-1.5,5.6,0L77.5,71.9z M37.6,66.4c0.8,0.8,1.2,1.8,1.2,2.8s-0.4,2-1.2,2.8l-5.5,5.5
		c-0.8,0.8-1.8,1.2-2.8,1.2s-2-0.4-2.8-1.2c-0.8-0.8-1.2-1.8-1.2-2.8s0.4-2,1.2-2.8l5.5-5.5C33.6,64.9,36.1,64.9,37.6,66.4z
		 M66.4,37.6c-0.8-0.8-1.2-1.8-1.2-2.8s0.4-2,1.2-2.8l5.5-5.5c1.5-1.5,4-1.5,5.6,0c0.8,0.8,1.2,1.8,1.2,2.8s-0.4,2-1.2,2.8L72,37.6
		c-0.8,0.8-1.8,1.2-2.8,1.2S67.2,38.4,66.4,37.6z"/>
</g>
</svg>
