<?xml version="1.0" encoding="utf-8"?>
<!-- Generator: Adobe Illustrator 18.1.1, SVG Export Plug-In . SVG Version: 6.00 Build 0)  -->
<!DOCTYPE svg PUBLIC "-//W3C//DTD SVG 1.1//EN" "http://www.w3.org/Graphics/SVG/1.1/DTD/svg11.dtd">
<svg version="1.1" id="Layer_1" xmlns="http://www.w3.org/2000/svg" xmlns:xlink="http://www.w3.org/1999/xlink" x="0px" y="0px"
	 viewBox="0 0 104 104" enable-background="new 0 0 104 104" xml:space="preserve">
<g id="ic_x5F_15">
	<path id="bg_19_" fill="#0079FF" d="M84,104H20C9,104,0,95,0,84V20C0,9,9,0,20,0h64c11,0,20,9,20,20v64C104,95,95,104,84,104z"/>
	<path fill="#FFFFFF" d="M90.3,48.1c0,10.2-4,19.8-11.2,27.1c-0.7,0.7-1.6,1.1-2.6,1.1s-1.9-0.4-2.6-1.1c-1.4-1.4-1.4-3.7,0-5.1
		c5.9-5.9,9.1-13.6,9.1-21.9s-3.2-16.1-9.1-21.9c-1.4-1.4-1.4-3.7,0-5.1s3.7-1.4,5.1,0C86.3,28.2,90.3,37.8,90.3,48.1z M21,48.1
		c0-8.3,3.2-16.1,9.1-21.9c1.4-1.4,1.4-3.7,0-5.1s-3.7-1.4-5.1,0c-7.2,7.2-11.2,16.8-11.2,27.1c0,10.2,4,19.8,11.2,27.1
		c0.7,0.7,1.6,1.1,2.6,1.1c0.9,0,1.9-0.4,2.6-1.1c1.4-1.4,1.4-3.7,0-5.1C24.2,64.1,21,56.3,21,48.1z M40.3,29.5
		c-1.4-1.4-3.7-1.4-5.1,0C25.1,39.6,25.1,56,35.2,66c0.7,0.7,1.6,1.1,2.6,1.1c0.9,0,1.9-0.4,2.6-1.1c1.4-1.4,1.4-3.7,0-5.1
		c-7.2-7.2-7.2-19,0-26.3C41.7,33.3,41.7,31,40.3,29.5z M68.8,29.5c-1.4-1.4-3.7-1.4-5.1,0s-1.4,3.7,0,5.1c7.2,7.2,7.2,19,0,26.3
		c-1.4,1.4-1.4,3.7,0,5.1c0.7,0.7,1.6,1.1,2.6,1.1c0.9,0,1.9-0.4,2.6-1.1C78.9,56,78.9,39.6,68.8,29.5z M52,37.4
		c-5.7,0-10.3,4.6-10.3,10.3c0,4.4,2.8,8.2,6.7,9.6v23.1c0,2,1.6,3.6,3.6,3.6s3.6-1.6,3.6-3.6V57.3c3.9-1.5,6.7-5.2,6.7-9.6
		C62.3,42,57.7,37.4,52,37.4z"/>
</g>
</svg>
