<?xml version="1.0" encoding="utf-8"?>
<!-- Generator: Adobe Illustrator 18.1.1, SVG Export Plug-In . SVG Version: 6.00 Build 0)  -->
<!DOCTYPE svg PUBLIC "-//W3C//DTD SVG 1.1//EN" "http://www.w3.org/Graphics/SVG/1.1/DTD/svg11.dtd">
<svg version="1.1" id="Layer_1" xmlns="http://www.w3.org/2000/svg" xmlns:xlink="http://www.w3.org/1999/xlink" x="0px" y="0px"
	 viewBox="0 0 104 104" enable-background="new 0 0 104 104" xml:space="preserve">
<g id="ic_x5F_14">
	<path id="bg_18_" fill="#0079FF" d="M84,104H20C9,104,0,95,0,84V20C0,9,9,0,20,0h64c11,0,20,9,20,20v64C104,95,95,104,84,104z"/>
	<path fill="#FFFFFF" d="M94.2,41.5c0.1,0.1,0.1,0.3,0,0.5L87,49.1c-0.1,0.1-0.2,0.1-0.2,0.1c-0.1,0-0.2,0-0.2-0.1
		C77.3,39.9,65,34.8,52,34.8s-25.3,5.1-34.5,14.3c0,0-0.1,0.1-0.2,0.1s-0.2,0-0.2-0.1l-7.2-7.2c-0.1-0.1-0.1-0.2-0.1-0.2
		s0-0.2,0.1-0.2C21.1,30.2,36.1,24,52,24S82.9,30.2,94.2,41.5z M52,44.3c-10.5,0-20.4,4.1-27.8,11.5c-0.1,0.1-0.1,0.3,0,0.5l7.2,7.2
		c0,0,0.1,0.1,0.2,0.1s0.2,0,0.2-0.1c5.4-5.4,12.5-8.3,20.1-8.3s14.8,3,20.1,8.3c0.1,0.1,0.1,0.1,0.2,0.1s0.2,0,0.2-0.1l0,0l7.2-7.2
		c0.1-0.1,0.1-0.3,0-0.5C72.4,48.4,62.5,44.3,52,44.3z M65.5,70.5c0-0.1,0-0.2-0.1-0.2c-3.6-3.6-8.4-5.6-13.4-5.6s-9.8,2-13.4,5.6
		c-0.1,0.1-0.1,0.2-0.1,0.2c0,0.1,0,0.2,0.1,0.2l13.2,13.2c0,0.1,0.1,0.1,0.2,0.1c0,0,0.1,0,0.2-0.1l0,0l13.2-13.2
		C65.5,70.6,65.5,70.5,65.5,70.5z"/>
</g>
</svg>
