<?xml version="1.0" encoding="utf-8"?>
<!-- Generator: Adobe Illustrator 18.1.1, SVG Export Plug-In . SVG Version: 6.00 Build 0)  -->
<!DOCTYPE svg PUBLIC "-//W3C//DTD SVG 1.1//EN" "http://www.w3.org/Graphics/SVG/1.1/DTD/svg11.dtd">
<svg version="1.1" id="Layer_1" xmlns="http://www.w3.org/2000/svg" xmlns:xlink="http://www.w3.org/1999/xlink" x="0px" y="0px"
	 viewBox="0 0 104 104" enable-background="new 0 0 104 104" xml:space="preserve">
<g id="ic_x5F_09">
	<path id="bg_13_" fill="#0079FF" d="M84,104H20C9,104,0,95,0,84V20C0,9,9,0,20,0h64c11,0,20,9,20,20v64C104,95,95,104,84,104z"/>
	<path fill="#FFFFFF" d="M77.8,32.8H71l-5.4-8.1c-0.5-0.8-1.7-1.4-2.6-1.4H41c-0.9,0-2.1,0.6-2.6,1.4l-5.3,8.1h-6.8
		C20,32.8,15,37.8,15,44v25.5c0,6.2,5,11.2,11.2,11.2h51.6c6.2,0,11.2-5,11.2-11.2V44C89,37.8,84,32.8,77.8,32.8z M52,75.3
		c-10.6,0-19.2-8.6-19.2-19.2S41.4,36.9,52,36.9s19.2,8.6,19.2,19.2S62.6,75.3,52,75.3z M79,45.6c-1.9,0-3.5-1.5-3.5-3.5
		s1.5-3.5,3.5-3.5c1.9,0,3.5,1.5,3.5,3.5C82.4,44.1,80.9,45.6,79,45.6z M65.9,56.1C65.9,63.7,59.7,70,52,70s-13.9-6.2-13.9-13.9
		S44.3,42.2,52,42.2S65.9,48.4,65.9,56.1z"/>
</g>
</svg>
