<?xml version="1.0" encoding="utf-8"?>
<!-- Generator: Adobe Illustrator 18.1.1, SVG Export Plug-In . SVG Version: 6.00 Build 0)  -->
<!DOCTYPE svg PUBLIC "-//W3C//DTD SVG 1.1//EN" "http://www.w3.org/Graphics/SVG/1.1/DTD/svg11.dtd">
<svg version="1.1" id="Layer_1" xmlns="http://www.w3.org/2000/svg" xmlns:xlink="http://www.w3.org/1999/xlink" x="0px" y="0px"
	 viewBox="0 0 104 104" enable-background="new 0 0 104 104" xml:space="preserve">
<g id="ic_x5F_12">
	<path id="bg_16_" fill="#0079FF" d="M84,104H20C9,104,0,95,0,84V20C0,9,9,0,20,0h64c11,0,20,9,20,20v64C104,95,95,104,84,104z"/>
	<path fill="#FFFFFF" d="M75.8,46.7L47.6,92.1c-0.9,1.4-3.1,0.6-2.8-1l4.3-29.7c0.1-0.9-0.6-1.8-1.5-1.8h-18c-1.2,0-1.9-1.3-1.3-2.3
		l28.1-45.4c0.9-1.4,3.1-0.6,2.8,1l-4.3,29.7c-0.1,0.9,0.6,1.8,1.5,1.8h18C75.7,44.4,76.4,45.7,75.8,46.7z"/>
</g>
</svg>
