<?xml version="1.0" encoding="utf-8"?>
<!-- Generator: Adobe Illustrator 18.1.1, SVG Export Plug-In . SVG Version: 6.00 Build 0)  -->
<!DOCTYPE svg PUBLIC "-//W3C//DTD SVG 1.1//EN" "http://www.w3.org/Graphics/SVG/1.1/DTD/svg11.dtd">
<svg version="1.1" id="Layer_1" xmlns="http://www.w3.org/2000/svg" xmlns:xlink="http://www.w3.org/1999/xlink" x="0px" y="0px"
	 viewBox="0 0 21 25" enable-background="new 0 0 21 25" xml:space="preserve">
<g>
	<path fill-rule="evenodd" clip-rule="evenodd" fill="#FFFFFF" d="M3,18c0.1,0,0.5-0.3,0.6-0.4l1.8-1.1c0.6-0.4,1.4-1.2,1.8-2.1
		c0.2-0.6,0.4-0.8,0.7-1.2c0.9-1,2.2-1.4,3.5-1c0.2,0.1,0.6,0.2,0.7,0.3c-0.2,0.2-0.5,0.3-0.7,0.5c-0.5,0.3-1.2,0.7-1.6,1.1
		c-1,1.2,0.5,3.2,2.1,2.1l1.9-1.3c0.2,1.3-0.2,2.2-0.9,2.9c-0.6,0.7-1.7,1.2-2.8,1.1c-0.7,0-0.8-0.2-1.8-0.1
		c-0.8,0.1-1.6,0.3-2.3,0.6c-0.1,0.1-0.2,0.1-0.3,0.2l-1.4,1c0,0.7-0.4,1.5-0.5,2.2c0,0.5,0.1,0.7,0.3,1c0.2,0.3,0.5,0.4,0.8,0.6
		c0.8,0.5,1.5,0.9,2.4,0.1l1-1c0.6-0.6,1.4-0.3,2.3-0.3c1,0,1.3,0,1.9,0.8l0.7,0.7c0.2,0.2,0.5,0.4,1,0.4c0.5,0,0.7-0.2,1-0.3
		c0.6-0.3,1.3-0.6,1.5-1.3c0.1-0.4,0-0.8-0.1-1.2c-0.2-0.9-0.5-1.4-0.1-2.2c0.1-0.3,0.3-0.5,0.5-0.8c0.4-0.7,0.5-1.1,1.3-1.4
		c0.4-0.1,1.3-0.3,1.6-0.4c0.1-0.1,0.3-0.2,0.4-0.3c0.2-0.2,0.4-0.6,0.4-1c0-0.4,0-1,0-1.4c0-0.4-0.2-0.8-0.4-0.9
		c-0.5-0.4-1.4-0.5-2-0.7c-0.9-0.3-0.9-1-1.5-1.9c-0.4-0.5-0.5-0.8-0.4-1.5c0.1-0.6,0.6-1.7,0.4-2.2c-0.1-0.3-0.4-0.6-0.6-0.7
		c-0.3-0.2-0.6-0.3-0.9-0.5C15.1,6.1,14.9,6,14.4,6c-0.4,0-0.7,0.3-0.9,0.5c-0.2,0.2-0.4,0.4-0.7,0.7c-0.2,0.2-0.5,0.5-0.8,0.6
		c-0.4,0.2-0.8,0.1-1.2,0.1c-0.4,0-0.9,0.1-1.3,0C8.8,7.8,8.6,7.4,8.2,7C8.1,6.9,8,6.8,7.9,6.7C7.5,6.3,6.9,5.7,6,6.1L5.1,6.6
		C4.8,6.8,4.6,6.9,4.4,7.2C4.1,7.5,4,7.7,4.1,8.2C4.2,8.6,4.3,9,4.4,9.3c0.3,1,0.1,1.3-0.4,2c-0.4,0.6-0.6,1.3-1.1,1.6
		c-0.5,0.3-1.5,0.4-2.1,0.6c-0.4,0.2-0.5,0.4-0.7,0.7c-0.2,0.4-0.1,0.8-0.1,1.2c0,0.5,0,0.8,0.2,1.2C0.4,17,0.6,17.2,1,17.4
		C1.5,17.6,2.7,17.7,3,18z"/>
	<path fill-rule="evenodd" clip-rule="evenodd" fill="#FFFFFF" d="M9.9,5.9c3.2,0,5.1-3,5.1-5.9C11.9,0.2,9.6,3,9.9,5.9z"/>
</g>
<g>
</g>
<g>
</g>
<g>
</g>
<g>
</g>
<g>
</g>
<g>
</g>
</svg>
