<?xml version="1.0" encoding="utf-8"?>
<!-- Generator: Adobe Illustrator 18.1.1, SVG Export Plug-In . SVG Version: 6.00 Build 0)  -->
<!DOCTYPE svg PUBLIC "-//W3C//DTD SVG 1.1//EN" "http://www.w3.org/Graphics/SVG/1.1/DTD/svg11.dtd">
<svg version="1.1" id="Layer_1" xmlns="http://www.w3.org/2000/svg" xmlns:xlink="http://www.w3.org/1999/xlink" x="0px" y="0px"
	 viewBox="0 0 26 26" enable-background="new 0 0 26 26" xml:space="preserve">
<g id="ic_x5F_01">
	<path id="bg_2_" fill="#0079FF" d="M21,26H5c-2.8,0-5-2.2-5-5V5c0-2.8,2.2-5,5-5h16c2.8,0,5,2.2,5,5v16C26,23.8,23.8,26,21,26z"/>
	<g>
		<g>
			<defs>
				<path id="SVGID_1_" d="M21,26H5c-2.8,0-5-2.2-5-5V5c0-2.8,2.2-5,5-5h16c2.8,0,5,2.2,5,5v16C26,23.8,23.8,26,21,26z"/>
			</defs>
			<clipPath id="SVGID_2_">
				<use xlink:href="#SVGID_1_"  overflow="visible"/>
			</clipPath>
			<path clip-path="url(#SVGID_2_)" fill="#FFFFFF" d="M30.6,6.2c0,0.4-0.4,0.8-0.9,0.7l-4.5-0.5l-4.6,2c0,0-0.1,0-0.1,0.1l-1.9,1.4
				l4.4,3.6L21.1,14l-2.5,4.2c-0.1,0.2-0.4,0.4-0.7,0.4c-0.1,0-0.3,0-0.4-0.1c-0.4-0.2-0.5-0.7-0.3-1.1l1.6-2.8l-9,2.5l1.5,3.2
				l4.7,0.5c0.5,0,0.8,0.4,0.7,0.9c0,0.4-0.4,0.7-0.8,0.7c0,0-0.1,0-0.1,0l-3.8-0.4l2.8,6l-2.2,3l1.1,2.1c0.2,0.4,0.1,0.9-0.3,1.1
				c-0.1,0.1-0.2,0.1-0.4,0.1c-0.3,0-0.6-0.2-0.7-0.4l-1.6-3l2.2-3.1l-3-6.3c-0.1-0.1-0.1-0.2-0.2-0.4L9.9,21l-1,1.7l-3.1,0.5
				l-1.3,3.5l-4.7-2.9l-4,4.8c-0.2,0.2-0.4,0.3-0.6,0.3c-0.2,0-0.4,0-0.5-0.2c-0.3-0.3-0.4-0.8-0.1-1.1l4.9-5.8l4.2,2.6l0.9-2.6
				l3.3-0.5l1.2-2l-1.5-3.1l12-3.4l-2.8-2.2l-5.1-2.4l-4.2,3.4H1.3l-1.1,3.4l-5.1-0.6c-0.4-0.1-0.8-0.4-0.7-0.9s0.4-0.8,0.9-0.7
				l3.8,0.5L0.2,10h7l4-3.3l0.7-1.5l-4-1.5L3.3,7.3L1.2,0.7C1,0.3,1.2-0.2,1.7-0.3s0.9,0.1,1,0.5l1.5,4.4l3.4-2.7l5,1.9l0.4-1.5
				l-2.8-1.4l3.1-5.2c0.2-0.4,0.7-0.5,1.1-0.3s0.5,0.7,0.3,1.1l-2.2,3.8l2.5,1.2l-1.1,3.5c-0.1,0.2-0.2,0.3-0.3,0.4l-0.7,1.5
				l4.4,2.1l2.5-1.8l-2.8-4l7-4.4c0.4-0.2,0.9-0.1,1.1,0.2s0.1,0.9-0.2,1.1l-5.6,3.5l2,2.8L25,4.8L30,5.4
				C30.4,5.4,30.7,5.8,30.6,6.2z"/>
		</g>
	</g>
</g>
</svg>
