<?xml version="1.0" encoding="utf-8"?>
<!-- Generator: Adobe Illustrator 18.1.1, SVG Export Plug-In . SVG Version: 6.00 Build 0)  -->
<!DOCTYPE svg PUBLIC "-//W3C//DTD SVG 1.1//EN" "http://www.w3.org/Graphics/SVG/1.1/DTD/svg11.dtd">
<svg version="1.1" id="Layer_1" xmlns="http://www.w3.org/2000/svg" xmlns:xlink="http://www.w3.org/1999/xlink" x="0px" y="0px"
	 viewBox="0 0 104 104" enable-background="new 0 0 104 104" xml:space="preserve">
<g id="ic_x5F_02">
	<path id="bg_3_" fill="#0079FF" d="M84,104H20C9,104,0,95,0,84V20C0,9,9,0,20,0h64c11,0,20,9,20,20v64C104,95,95,104,84,104z"/>
	<g>
		<g>
			<defs>
				<path id="SVGID_1_" d="M84,104H20C9,104,0,95,0,84V20C0,9,9,0,20,0h64c11,0,20,9,20,20v64C104,95,95,104,84,104z"/>
			</defs>
			<clipPath id="SVGID_2_">
				<use xlink:href="#SVGID_1_"  overflow="visible"/>
			</clipPath>
			<path clip-path="url(#SVGID_2_)" fill="#FFFFFF" d="M101.1,39.8c-0.8,1.7-2.7,2.2-4.2,1.4c-0.1,0-0.2-0.1-0.2-0.2l-11.5-8.3
				l-2.3,24.7L70.1,63l-0.2,8.7c0,1.4-1,2.7-2.4,2.9c-0.8,0.1-1.5,0-2.1-0.4c-0.9-0.5-1.5-1.5-1.5-2.6L64.3,59l13-5.6l2.4-25.6
				c-0.1-0.5,0-1.1,0.2-1.6l0.1-1.1l-6.5,3.6l-10.8-4.4l-10.8,8.9L42.4,15l-21.7,7.7c-0.9,0.3-1.8,0.2-2.5-0.2
				c-0.6-0.3-1-0.9-1.3-1.6c-0.5-1.5,0.3-3.2,1.8-3.8l26.6-9.4L53.8,24l7.9-6.5l11.5,4.6l7.6-4.1L82,5.3l25,6.7c-0.2,2-0.3,4-0.5,6
				l-19.3-5.2L85.9,26L100,36.2C101.2,37,101.7,38.5,101.1,39.8z"/>
		</g>
	</g>
</g>
</svg>
