<?xml version="1.0" encoding="utf-8"?>
<!-- Generator: Adobe Illustrator 18.1.1, SVG Export Plug-In . SVG Version: 6.00 Build 0)  -->
<!DOCTYPE svg PUBLIC "-//W3C//DTD SVG 1.1//EN" "http://www.w3.org/Graphics/SVG/1.1/DTD/svg11.dtd">
<svg version="1.1" id="Layer_1" xmlns="http://www.w3.org/2000/svg" xmlns:xlink="http://www.w3.org/1999/xlink" x="0px" y="0px"
	 viewBox="0 0 104 104" enable-background="new 0 0 104 104" xml:space="preserve">
<g id="ic_x5F_06">
	<path id="bg_9_" fill="#0079FF" d="M84,104H20C9,104,0,95,0,84V20C0,9,9,0,20,0h64c11,0,20,9,20,20v64C104,95,95,104,84,104z"/>
	<path fill="#FFFFFF" d="M52,87.3c-14.8,0-26.9-12.1-26.9-26.9c0-11.9,15.9-35.9,22.8-45.7c0.9-1.3,2.5-2.1,4.1-2.1s3.2,0.8,4.1,2.1
		c6.8,9.8,22.8,33.8,22.8,45.6C78.9,75.3,66.8,87.3,52,87.3z M52,24.1c-9.5,14.1-18.2,29.8-18.2,36.3c0,10,8.2,18.2,18.2,18.2
		s18.2-8.2,18.2-18.2C70.2,53.9,61.5,38.2,52,24.1z"/>
</g>
</svg>
