<?xml version="1.0" encoding="utf-8"?>
<!-- Generator: Adobe Illustrator 18.1.1, SVG Export Plug-In . SVG Version: 6.00 Build 0)  -->
<!DOCTYPE svg PUBLIC "-//W3C//DTD SVG 1.1//EN" "http://www.w3.org/Graphics/SVG/1.1/DTD/svg11.dtd">
<svg version="1.1" id="Layer_1" xmlns="http://www.w3.org/2000/svg" xmlns:xlink="http://www.w3.org/1999/xlink" x="0px" y="0px"
	 viewBox="0 0 104 104" enable-background="new 0 0 104 104" xml:space="preserve">
<g id="ic_x5F_11">
	<path id="bg_15_" fill="#0079FF" d="M84,104H20C9,104,0,95,0,84V20C0,9,9,0,20,0h64c11,0,20,9,20,20v64C104,95,95,104,84,104z"/>
	<path fill="#FFFFFF" d="M52,87.2c-9.1,0-17.6-3.5-24-10c-13.3-13.3-13.3-34.8,0-48.1c1.8-1.8,4.8-1.8,6.6,0s1.8,4.8,0,6.6
		C25,45.3,25,61,34.6,70.6c4.7,4.7,10.9,7.2,17.4,7.2c6.6,0,12.8-2.6,17.4-7.2c4.7-4.7,7.2-10.9,7.2-17.4S74,40.4,69.4,35.8
		c-1.8-1.8-1.8-4.8,0-6.6c1.8-1.8,4.8-1.8,6.6,0c6.4,6.4,10,15,10,24c0,9.1-3.5,17.6-10,24C69.6,83.7,61.1,87.2,52,87.2z M57.3,53.6
		V18.1c0-2.9-2.4-5.3-5.3-5.3s-5.3,2.4-5.3,5.3v35.5c0,2.9,2.4,5.3,5.3,5.3S57.3,56.5,57.3,53.6z"/>
</g>
</svg>
