<?xml version="1.0" encoding="utf-8"?>
<!-- Generator: Adobe Illustrator 18.1.1, SVG Export Plug-In . SVG Version: 6.00 Build 0)  -->
<!DOCTYPE svg PUBLIC "-//W3C//DTD SVG 1.1//EN" "http://www.w3.org/Graphics/SVG/1.1/DTD/svg11.dtd">
<svg version="1.1" id="Layer_1" xmlns="http://www.w3.org/2000/svg" xmlns:xlink="http://www.w3.org/1999/xlink" x="0px" y="0px"
	 viewBox="0 0 104 104" enable-background="new 0 0 104 104" xml:space="preserve">
<g id="ic_x5F_08">
	<path id="bg_12_" fill="#0079FF" d="M84,104H20C9,104,0,95,0,84V20C0,9,9,0,20,0h64c11,0,20,9,20,20v64C104,95,95,104,84,104z"/>
	<path fill="#FFFFFF" d="M79.2,44.3v6c0,7-2.3,13-7,18.2c-4.6,5.1-10.4,8.1-17.2,8.9V87h12.1c0.8,0,1.5,0.3,2.1,0.9s0.9,1.3,0.9,2.1
		c0,0.8-0.3,1.5-0.9,2.1S67.9,93,67.1,93H36.9c-0.8,0-1.5-0.3-2.1-0.9s-0.9-1.3-0.9-2.1c0-0.8,0.3-1.5,0.9-2.1s1.3-0.9,2.1-0.9H49
		v-9.6c-6.8-0.8-12.6-3.7-17.2-8.9s-7-11.2-7-18.2v-6c0-0.8,0.3-1.5,0.9-2.1s1.3-0.9,2.1-0.9c0.8,0,1.5,0.3,2.1,0.9s0.9,1.3,0.9,2.1
		v6c0,5.8,2.1,10.8,6.2,15s9.1,6.2,15,6.2s10.8-2.1,15-6.2c4.1-4.1,6.2-9.1,6.2-15v-6c0-0.8,0.3-1.5,0.9-2.1s1.3-0.9,2.1-0.9
		c0.8,0,1.5,0.3,2.1,0.9C78.9,42.7,79.2,43.4,79.2,44.3L79.2,44.3z M67.1,26.1v24.2c0,4.2-1.5,7.7-4.4,10.7c-3,3-6.5,4.4-10.7,4.4
		s-7.7-1.5-10.7-4.4c-3-3-4.4-6.5-4.4-10.7V26.1c0-4.2,1.5-7.7,4.4-10.7c3-3,6.5-4.4,10.7-4.4s7.7,1.5,10.7,4.4S67.1,22,67.1,26.1
		L67.1,26.1z"/>
</g>
</svg>
