<?xml version="1.0" encoding="utf-8"?>
<!-- Generator: Adobe Illustrator 18.1.1, SVG Export Plug-In . SVG Version: 6.00 Build 0)  -->
<!DOCTYPE svg PUBLIC "-//W3C//DTD SVG 1.1//EN" "http://www.w3.org/Graphics/SVG/1.1/DTD/svg11.dtd">
<svg version="1.1" id="Layer_1" xmlns="http://www.w3.org/2000/svg" xmlns:xlink="http://www.w3.org/1999/xlink" x="0px" y="0px"
	 viewBox="0 0 104 104" enable-background="new 0 0 104 104" xml:space="preserve">
<g id="ic_x5F_07">
	<path id="bg_11_" fill="#0079FF" d="M84,104H20C9,104,0,95,0,84V20C0,9,9,0,20,0h64c11,0,20,9,20,20v64C104,95,95,104,84,104z"/>
	<path fill="#FFFFFF" d="M68,18.7v66.6c0,0.6-0.3,1.2-0.7,1.7c-0.4,0.4-1,0.6-1.6,0.6l0,0c-0.6,0-1.2-0.2-1.6-0.7L44.5,67.3h-13
		c-1.9,0-3.5-1.6-3.5-3.5V40.2c0-1.9,1.6-3.5,3.5-3.5h13l19.6-19.6c0.4-0.4,1-0.7,1.6-0.7C67,16.4,68,17.4,68,18.7z"/>
</g>
</svg>
