<?xml version="1.0" encoding="utf-8"?>
<!-- Generator: Adobe Illustrator 18.1.1, SVG Export Plug-In . SVG Version: 6.00 Build 0)  -->
<!DOCTYPE svg PUBLIC "-//W3C//DTD SVG 1.1//EN" "http://www.w3.org/Graphics/SVG/1.1/DTD/svg11.dtd">
<svg version="1.1" id="Layer_1" xmlns="http://www.w3.org/2000/svg" xmlns:xlink="http://www.w3.org/1999/xlink" x="0px" y="0px"
	 viewBox="0 0 104 104" enable-background="new 0 0 104 104" xml:space="preserve">
<g id="ic_x5F_04">
	<path id="bg_7_" fill="#0079FF" d="M84,104H20C9,104,0,95,0,84V20C0,9,9,0,20,0h64c11,0,20,9,20,20v64C104,95,95,104,84,104z"/>
	<g>
		<g>
			<defs>
				<path id="SVGID_1_" d="M84,104H20C9,104,0,95,0,84V20C0,9,9,0,20,0h64c11,0,20,9,20,20v64C104,95,95,104,84,104z"/>
			</defs>
			<clipPath id="SVGID_2_">
				<use xlink:href="#SVGID_1_"  overflow="visible"/>
			</clipPath>
			<path clip-path="url(#SVGID_2_)" fill="#FFFFFF" d="M81.9,56.8c-1.7,0-3.3,0.4-4.7,1.1c-1.7-3.4-5.2-5.8-9.2-5.8
				c-1.7,0-3.3,0.4-4.7,1.1c-1.7-3.4-5.2-5.8-9.2-5.8c-1.3,0-2.6,0.2-3.7,0.7V29.5c0-5.5-4.6-9.9-10.2-9.9c-5.5,0-10.2,4.6-10.2,10
				v35.8l-5-5.1c-1.8-1.8-4.3-2.8-6.9-2.8c-2.8,0-5.4,1.1-7.3,3.1c-3.6,3.6-3.8,9.3-0.5,13.9c2,2.8,4.4,8.1,7,13.6l0.1,0.1
				c7,15.3,14.9,32.6,26.6,32.6h26c0.4,0,0.8-0.1,1.2-0.2c0.3-0.1,5.6-2.2,10.7-6.9c6.6-6,10.2-13.5,10.2-21.8V66.8
				C92.1,61.3,87.5,56.8,81.9,56.8z M30.8,75.6c0.1,0.1,0.2,0.2,0.3,0.3c0.6,0.6,1.4,0.9,2.2,0.9c0.9,0,1.7-0.3,2.3-0.9s1-1.4,1-2.3
				c0-0.3,0-0.5-0.1-0.8V29.6c0-1.9,1.7-3.5,3.7-3.5s3.7,1.5,3.7,3.4v27.9v2.1v9.3c0,1.8,1.5,3.3,3.3,3.3s3.3-1.5,3.3-3.3v-9.3v-2.1
				c0-1.8,1.7-3.4,3.7-3.4s3.7,1.6,3.7,3.5V62l0,0v11.4c0,1.8,1.5,3.3,3.3,3.3s3.3-1.5,3.3-3.3v-4.6V62c0-1.8,1.7-3.4,3.7-3.4
				s3.7,1.6,3.7,3.5v4.5v6.8V78c0,1.8,1.5,3.3,3.3,3.3s3.3-1.5,3.3-3.3v-4.6v-6.7c0-1.8,1.7-3.4,3.7-3.4s3.7,1.6,3.7,3.5v25.1
				c0,14.2-13.2,21-16.3,22.4H43.8c-7.4,0-15.4-17.3-20.7-28.8c-2.8-6.2-5.3-11.5-7.6-14.8c-1.1-1.6-1.7-4-0.2-5.6
				C16,64.4,17,64,18,64c0.9,0,1.7,0.3,2.3,0.9L30.8,75.6z"/>
		</g>
	</g>
</g>
</svg>
