<?xml version="1.0" encoding="utf-8"?>
<!-- Generator: Adobe Illustrator 18.1.1, SVG Export Plug-In . SVG Version: 6.00 Build 0)  -->
<!DOCTYPE svg PUBLIC "-//W3C//DTD SVG 1.1//EN" "http://www.w3.org/Graphics/SVG/1.1/DTD/svg11.dtd">
<svg version="1.1" id="Layer_1" xmlns="http://www.w3.org/2000/svg" xmlns:xlink="http://www.w3.org/1999/xlink" x="0px" y="0px"
	 viewBox="0 0 104 104" enable-background="new 0 0 104 104" xml:space="preserve">
<g id="ic_x5F_10">
	<path id="bg_14_" fill="#0079FF" d="M84,104H20C9,104,0,95,0,84V20C0,9,9,0,20,0h64c11,0,20,9,20,20v64C104,95,95,104,84,104z"/>
	<path fill="#FFFFFF" d="M74,69.2c0,5.1-3.9,9-9,9s-9-3.9-9-9s3.9-9,9-9c1.2,0,2.1,0.3,3,0.9V35c-12,0.3-19.5,1.5-24,3v34.2
		c0,5.1-3.9,9-9,9s-9-3.9-9-9s3.9-9,9-9c1.2,0,2.1,0.3,3,0.6v-35c0,0,6-6,36-6V69.2z"/>
</g>
</svg>
